PathFileType	4	(X/Y/Z)	s11c0402.trc
DataRate	CameraRate	NumFrames	NumMarkers	Units	OrigDataRate	OrigDataStartFrame	OrigNumFrames
200	200	4	48	mm	200	1750	2000
Frame#	Time	racr			lacr			c7			jug			rlel			rdr			llel			ldr			s2			lic			ric			lasi			rasi			rpsi			lpsi			rgt			lgt			rth1			rth2			rth3			rth4			rlfc			rmfc			rsh1			rsh2			rsh3			rsh4			rlmal			rcal			rtoe			rmt5			lth1			lth2			lth4			lth3			llfc			lmfc			llmal			lcal			lmt5			lsh1			lsh2			lsh3			lsh4			ltoe			SBIKE			LBIKE			RBIKE			
		X1	Y1	Z1	X2	Y2	Z2	X3	Y3	Z3	X4	Y4	Z4	X5	Y5	Z5	X6	Y6	Z6	X7	Y7	Z7	X8	Y8	Z8	X9	Y9	Z9	X10	Y10	Z10	X11	Y11	Z11	X12	Y12	Z12	X13	Y13	Z13	X14	Y14	Z14	X15	Y15	Z15	X16	Y16	Z16	X17	Y17	Z17	X18	Y18	Z18	X19	Y19	Z19	X20	Y20	Z20	X21	Y21	Z21	X22	Y22	Z22	X23	Y23	Z23	X24	Y24	Z24	X25	Y25	Z25	X26	Y26	Z26	X27	Y27	Z27	X28	Y28	Z28	X29	Y29	Z29	X30	Y30	Z30	X31	Y31	Z31	X32	Y32	Z32	X33	Y33	Z33	X34	Y34	Z34	X35	Y35	Z35	X36	Y36	Z36	X37	Y37	Z37	X38	Y38	Z38	X39	Y39	Z39	X40	Y40	Z40	X41	Y41	Z41	X42	Y42	Z42	X43	Y43	Z43	X44	Y44	Z44	X45	Y45	Z45	X46	Y46	Z46	X47	Y47	Z47	X48	Y48	Z48	
1750	8.7500	660.439682	1396.953449	-122.152904	663.716444	1372.213097	-467.914635	618.153407	1488.311642	-299.233673	621.874139	1310.611177	-295.149206	576.872823	1148.745238	5.951206	768.608381	964.418754	-73.635459	543.643912	1126.307537	-632.167762	750.488136	949.515685	-478.302625	36.411449	1290.875084	-282.065157	242.676235	1231.018953	-491.870196	268.055413	1278.457920	-99.272669	262.141555	1156.191975	-454.457120	271.418756	1213.830968	-140.729982	97.307966	1361.309539	-244.663157	88.938849	1340.321374	-336.676557	212.699047	1174.057571	-59.155955	104.899219	1122.661670	-472.996694	327.516554	1087.882979	-61.836013	410.342784	1057.760074	-79.719092	465.844352	990.728036	-90.893392	426.329679	1085.441099	-99.096570	544.372903	916.717264	-110.480926	528.742740	889.937482	-238.454449	430.633584	803.496804	-91.121893	378.219892	733.748953	-105.946418	299.500665	696.441015	-102.146470	394.509019	717.536292	-139.951862	184.353937	624.815640	-106.477123	117.428775	645.136265	-151.483438	335.855049	458.091250	-151.695341	265.162934	476.173924	-80.564108	132.904320	979.965080	-488.601403	158.730777	899.353236	-478.599435	195.799593	900.179763	-475.255023	139.218615	812.836797	-461.900431	153.608224	678.421456	-425.869335	162.741689	669.579192	-297.838049	141.431400	248.860068	-402.583703	87.524572	215.324328	-371.195587	281.879669	156.564470	-453.227736	133.487655	553.104778	-445.726541	159.549017	472.593004	-434.151475	142.847412	385.503040	-429.459158	191.568435	476.178768	-412.134999	383.286464	172.415262	-391.372977	-215.052107	953.738874	-257.374168	-17.725304	80.805847	-460.974007	-17.727917	80.999478	-62.185478	
1751	8.7550	659.086423	1397.088633	-121.901852	662.472450	1372.342377	-467.675809	616.637588	1488.401537	-298.915015	620.474601	1310.865252	-294.798070	576.626349	1148.614476	6.316414	768.575038	964.292049	-73.346741	543.211408	1126.081752	-632.020130	750.451448	949.475394	-478.338584	35.044104	1290.732043	-282.294784	241.575754	1230.902554	-491.753465	266.720016	1278.285843	-99.362275	261.067688	1156.124793	-454.333700	270.184429	1213.592849	-140.617302	95.849817	1361.051136	-244.792958	87.512370	1340.147861	-336.826033	211.183618	1173.769381	-59.252300	103.973329	1122.189280	-473.092017	325.763359	1087.316208	-61.801989	408.612305	1057.072288	-79.527616	464.030017	989.953806	-90.622598	424.698173	1084.733587	-98.857755	542.565090	915.906173	-110.039902	526.985250	889.462846	-238.191284	428.707296	803.119548	-90.681611	376.281493	733.365956	-105.676185	297.476684	696.068392	-101.893883	392.602316	717.054487	-139.628580	182.356945	624.387066	-106.337737	115.592518	644.607281	-151.582859	334.158892	458.028731	-151.675314	263.433610	475.924941	-80.519082	132.614475	979.737254	-488.427227	158.677020	899.162505	-478.395623	195.720815	900.074248	-474.929676	139.374724	812.613597	-461.746828	153.890925	678.244005	-425.858334	162.742886	669.390900	-297.786899	142.605980	248.567869	-402.531085	88.758332	214.840118	-371.230046	283.372186	156.892653	-453.198884	134.109631	552.928707	-445.756071	160.336672	472.439653	-434.075421	143.850756	385.333307	-429.499741	192.303991	476.156738	-412.134132	384.691632	173.224066	-391.314830	-215.053266	953.739991	-257.385883	-17.750046	80.804447	-460.966620	-17.721808	80.997675	-62.169040	
1752	8.7600	657.738989	1397.186657	-121.766220	661.270487	1372.472607	-467.376669	615.120486	1488.577974	-298.665737	619.234691	1311.037520	-294.350953	576.402417	1148.530876	6.625629	768.497891	964.168606	-73.050804	542.736820	1125.875041	-631.829826	750.427058	949.408422	-478.376944	33.438059	1290.354315	-282.340301	240.460524	1230.774252	-491.721082	265.349852	1278.159362	-99.400799	259.995852	1156.015611	-454.111312	268.966674	1213.403775	-140.512454	94.316051	1360.895044	-244.816914	86.023394	1339.990021	-336.928464	209.662142	1173.367464	-59.370959	103.144203	1121.791025	-473.210355	324.020447	1086.743875	-61.718979	406.867396	1056.341767	-79.305480	462.198900	989.201219	-90.426407	423.115311	1083.936903	-98.466821	540.757135	915.372102	-109.756083	525.294161	889.033898	-237.868032	426.764011	802.809299	-90.260991	374.195337	732.936092	-105.454687	295.483230	695.766747	-101.676473	390.719065	716.645927	-139.271160	180.483140	623.973403	-106.294914	113.625038	644.118196	-151.501125	332.566828	457.976143	-151.685460	261.859739	475.641239	-80.471368	132.336722	979.512917	-488.250175	158.645292	899.004060	-478.175219	195.671579	900.038096	-474.630549	139.549958	812.391173	-461.614763	154.251513	678.102733	-425.800793	162.815006	669.239396	-297.723405	143.685414	248.406564	-402.532284	89.970601	214.401123	-371.212979	284.838859	157.185578	-453.172923	134.824537	552.711594	-445.708284	161.155098	472.351203	-434.061358	144.842293	385.126269	-429.527023	193.076535	475.994410	-411.924153	386.018065	173.981328	-391.361411	-215.050818	953.744734	-257.357138	-17.741234	80.798859	-460.967485	-17.714856	81.010099	-62.178759	
1753	8.7650	656.363665	1397.369303	-121.521508	660.062682	1372.650754	-467.127123	613.584754	1488.797030	-298.581113	617.843949	1311.170567	-294.116944	576.180164	1148.482317	6.970699	768.402062	964.046920	-72.775209	542.185722	1125.660903	-631.600517	750.419668	949.305267	-478.598382	31.868368	1290.121412	-282.507280	239.357513	1230.661571	-491.656397	263.988524	1278.129012	-99.354253	258.932220	1155.954071	-453.912925	267.702597	1213.283004	-140.321578	93.846360	1360.568455	-245.710286	84.361298	1339.892755	-337.158372	208.134852	1172.977578	-59.470475	102.225763	1121.401593	-473.319636	322.340978	1086.266022	-61.569364	405.127656	1056.005137	-78.482880	460.384750	988.441067	-90.161489	421.481237	1083.402001	-98.024434	539.034765	914.775367	-109.112059	523.678330	888.622695	-237.515536	424.660571	802.324365	-90.770926	372.317278	732.580949	-105.161383	293.539335	695.504095	-101.444832	388.893099	716.269134	-138.922307	178.505921	623.499837	-106.174918	111.707911	643.580799	-151.428549	330.999734	457.855434	-151.680286	260.250280	475.435421	-80.405641	132.053332	979.313964	-488.075088	158.622445	898.877720	-477.988532	195.630347	900.025894	-474.375518	139.772158	812.178153	-461.498429	154.633224	677.930162	-425.773950	162.977685	669.093624	-297.678359	144.757211	248.274803	-402.503094	91.032652	214.029260	-371.214773	286.207962	157.572724	-453.219637	135.501482	552.540454	-445.639994	161.964864	472.184478	-434.021301	145.796084	385.007734	-429.570649	193.811664	475.943969	-411.804533	387.328982	174.680764	-391.322561	-215.059781	953.735065	-257.347140	-17.729245	80.818809	-460.976364	-17.724585	81.009088	-62.175598	
